<svg xmlns="http://www.w3.org/2000/svg" width="48" height="48" viewBox="0 0 48 48">
  <rect x="0" y="0" width="48" height="48" rx="10" ry="10" fill="#0c0c0c"/>
  <g transform="translate(12,12) scale(1)">
    <path d="M12 0C5.373 0 0 5.373 0 12s5.373 12 12 12 12-5.373 12-12S18.627 0 12 0zm0 21.6c-1.13 0-2.226-.184-3.246-.523.45-.677.972-1.547 1.366-2.4.487-1.05.798-1.948 1.039-2.797.244.85.55 1.756 1.04 2.797.395.853.916 1.723 1.367 2.4-1.02.339-2.116.523-3.246.523-.107 0-.213-.005-.32-.008zm5.36-1.34c-.45-.677-.972-1.547-1.366-2.4-.732-1.578-1.054-2.853-1.184-3.66h4.71c-.276 2.394-1.46 4.476-2.16 6.06zM18.74 12h-4.96c.13-.807.452-2.082 1.184-3.66.394-.853.917-1.723 1.366-2.4.7 1.584 1.884 3.666 2.16 6.06h.25zm-2.72-7.4c-.451.677-.972 1.547-1.367 2.4-.49 1.04-.796 1.947-1.04 2.797-.24-.849-.55-1.747-1.038-2.797-.394-.853-.916-1.723-1.366-2.4 1.02-.339 2.116-.523 3.246-.523s2.226.184 3.246.523h.319zM7.21 4.6c.451.677.972 1.547 1.367 2.4.49 1.05.796 1.948 1.04 2.797.24-.85.55-1.748 1.038-2.797.394-.853.916-1.723 1.366-2.4-1.02.339-2.116.523-3.246.523S8.55 4.94 7.53 4.6h-.32zM5.26 12h4.96c-.13.807-.452 2.082-1.184 3.66-.394.853-.917 1.723-1.366 2.4-.7-1.584-1.884-3.666-2.16-6.06h-.25zm-1.024-1.4h4.984c.276-2.394 1.46-4.476 2.16-6.06-2.95.764-5.345 2.94-6.4 5.736-.314.108-.49.214-.744.324z" fill="#ffffff"/>
  </g>
</svg>